<svg width="367" height="331" viewBox="0 0 367 331" fill="none" xmlns="http://www.w3.org/2000/svg">
<circle cx="183" cy="214" r="117" fill="url(#paint0_linear_1383_124)"/>
<path d="M14.0452 98.067C14.0452 98.067 11.7548 107.872 16.5066 114.675C21.2583 121.478 31.2528 122.703 31.2528 122.703C31.2528 122.703 33.5432 112.898 28.7914 106.095C24.0397 99.2917 14.0452 98.067 14.0452 98.067Z" fill="#F26C74"/>
<path d="M100.59 69.3536C100.59 69.3536 113.229 49.8038 108.453 30.8098C103.676 11.8159 83.2932 0.570266 83.2932 0.570266C83.2932 0.570266 70.6545 20.12 75.431 39.114C80.2075 58.108 100.59 69.3536 100.59 69.3536Z" fill="#FAA881"/>
<path d="M352.578 98.067C352.578 98.067 354.868 107.872 350.116 114.675C345.365 121.478 335.37 122.703 335.37 122.703C335.37 122.703 333.08 112.898 337.832 106.095C342.583 99.2917 352.578 98.067 352.578 98.067Z" fill="#43A3A8"/>
<path d="M266.033 69.3536C266.033 69.3536 253.394 49.8038 258.17 30.8098C262.947 11.8159 283.33 0.570266 283.33 0.570266C283.33 0.570266 295.969 20.12 291.192 39.114C286.416 58.108 266.033 69.3536 266.033 69.3536Z" fill="#7675FD"/>
<defs>
<linearGradient id="paint0_linear_1383_124" x1="183" y1="158.982" x2="183" y2="331" gradientUnits="userSpaceOnUse">
<stop stop-color="#F7F3F4"/>
<stop offset="1" stop-color="#F7F3F4" stop-opacity="0"/>
</linearGradient>
</defs>
</svg>
